<svg width="48" height="48" viewBox="0 0 48 48" fill="none" xmlns="http://www.w3.org/2000/svg">
<path d="M29.38 34.58C29.5654 34.3949 29.7125 34.1752 29.8128 33.9332C29.9132 33.6913 29.9648 33.4319 29.9648 33.17C29.9648 32.908 29.9132 32.6487 29.8128 32.4067C29.7125 32.1648 29.5654 31.945 29.38 31.76L21.62 24L29.38 16.24C29.7539 15.866 29.964 15.3588 29.964 14.83C29.964 14.3011 29.7539 13.7939 29.38 13.42C29.006 13.046 28.4988 12.8359 27.97 12.8359C27.4411 12.8359 26.9339 13.046 26.56 13.42L17.38 22.6C17.1945 22.785 17.0475 23.0048 16.9471 23.2467C16.8467 23.4887 16.7951 23.748 16.7951 24.01C16.7951 24.2719 16.8467 24.5313 16.9471 24.7732C17.0475 25.0151 17.1945 25.2349 17.38 25.42L26.56 34.6C27.32 35.36 28.6 35.36 29.38 34.58Z" fill="white"/>
</svg>
