<svg width="48" height="48" viewBox="0 0 48 48" fill="none" xmlns="http://www.w3.org/2000/svg">
<path d="M18.62 34.58C18.4346 34.3949 18.2875 34.1752 18.1871 33.9332C18.0868 33.6913 18.0351 33.4319 18.0351 33.17C18.0351 32.908 18.0868 32.6487 18.1871 32.4067C18.2875 32.1648 18.4346 31.945 18.62 31.76L26.38 24L18.62 16.24C18.246 15.866 18.036 15.3588 18.036 14.83C18.036 14.3011 18.246 13.7939 18.62 13.42C18.994 13.046 19.5011 12.8359 20.03 12.8359C20.5588 12.8359 21.066 13.046 21.44 13.42L30.62 22.6C30.8054 22.785 30.9525 23.0048 31.0529 23.2467C31.1532 23.4887 31.2049 23.748 31.2049 24.01C31.2049 24.2719 31.1532 24.5313 31.0529 24.7732C30.9525 25.0151 30.8054 25.2349 30.62 25.42L21.44 34.6C20.68 35.36 19.4 35.36 18.62 34.58Z" fill="white"/>
</svg>
