<svg width="50" height="50" viewBox="0 0 50 50" fill="none" xmlns="http://www.w3.org/2000/svg">
<rect opacity="0.1" x="0.5" y="0.5" width="49" height="49" rx="24.5" fill="#7456FF" stroke="#0F0F0F"/>
<path d="M34.035 18.257C34.945 19.349 35.399 20.623 35.399 22.079C35.399 27.356 32.397 28.903 29.576 29.358C29.94 29.995 30.031 30.723 30.031 31.451V35.181C30.031 35.636 29.758 35.909 29.394 35.909C29.298 35.9103 29.2028 35.8924 29.1138 35.8563C29.0249 35.8202 28.9441 35.7666 28.8762 35.6988C28.8084 35.6309 28.7548 35.5501 28.7187 35.4612C28.6826 35.3722 28.6647 35.277 28.666 35.181V31.451C28.7139 31.0696 28.6732 30.6823 28.5469 30.3193C28.4206 29.9563 28.2123 29.6273 27.938 29.358L28.393 28.175C31.214 27.811 34.126 26.901 34.126 21.988C34.126 20.805 33.671 19.713 32.852 18.803L32.67 18.076C33.0161 17.204 33.0479 16.2388 32.76 15.346C32.306 15.436 31.396 15.619 29.85 16.711L29.303 16.801C27.1538 16.2552 24.9022 16.2552 22.753 16.801L22.206 16.711C20.57 15.71 19.66 15.437 19.204 15.437C18.931 16.347 18.931 17.347 19.294 18.167L19.113 18.894C18.203 19.804 17.748 20.987 17.748 22.079C17.748 26.901 20.478 27.902 23.48 28.266L23.844 29.449C23.298 29.995 23.025 30.723 23.116 31.451V35.272C23.1174 35.368 23.0994 35.4632 23.0633 35.5522C23.0272 35.6411 22.9736 35.7219 22.9058 35.7898C22.8379 35.8576 22.7571 35.9112 22.6682 35.9473C22.5793 35.9834 22.484 36.0013 22.388 36C22.292 36.0013 22.1968 35.9834 22.1078 35.9473C22.0189 35.9112 21.9381 35.8576 21.8702 35.7898C21.8024 35.7219 21.7488 35.6411 21.7127 35.5522C21.6766 35.4632 21.6587 35.368 21.66 35.272V33.18C18.658 33.817 17.475 32.27 16.565 31.088C16.11 30.542 15.746 30.087 15.291 29.996C15.201 29.905 14.927 29.541 15.018 29.177C15.109 28.813 15.473 28.54 15.838 28.722C16.748 28.904 17.293 29.632 17.838 30.269C18.658 31.361 19.477 32.361 21.933 31.816V31.452C21.843 30.724 22.024 29.996 22.388 29.359C19.658 28.813 16.474 27.266 16.474 22.08C16.474 20.624 16.929 19.35 17.839 18.258C17.566 16.985 17.657 15.62 18.112 14.528L18.567 14.164C18.749 14.073 20.023 13.8 22.66 15.437C24.8404 14.8911 27.1217 14.8911 29.302 15.437C31.851 13.708 33.216 13.98 33.398 14.072L33.853 14.436C34.308 15.71 34.399 16.984 34.035 18.257V18.257Z" fill="#8368FF"/>
</svg>
