<svg width="217" height="36" viewBox="0 0 217 36" fill="none" xmlns="http://www.w3.org/2000/svg">
<path d="M79.92 9.248V26H76.56V15.104L72.072 26H69.528L65.016 15.104V26H61.656V9.248H65.472L70.8 21.704L76.128 9.248H79.92ZM94.6419 9.248V11.96H90.1779V26H86.8179V11.96H82.3539V9.248H94.6419ZM100.454 23.336H105.974V26H97.0935V9.248H100.454V23.336ZM113.012 17.6C113.012 15.952 113.38 14.48 114.116 13.184C114.868 11.872 115.884 10.856 117.164 10.136C118.46 9.4 119.908 9.032 121.508 9.032C123.38 9.032 125.02 9.512 126.428 10.472C127.836 11.432 128.82 12.76 129.38 14.456H125.516C125.132 13.656 124.588 13.056 123.884 12.656C123.196 12.256 122.396 12.056 121.484 12.056C120.508 12.056 119.636 12.288 118.868 12.752C118.116 13.2 117.524 13.84 117.092 14.672C116.676 15.504 116.468 16.48 116.468 17.6C116.468 18.704 116.676 19.68 117.092 20.528C117.524 21.36 118.116 22.008 118.868 22.472C119.636 22.92 120.508 23.144 121.484 23.144C122.396 23.144 123.196 22.944 123.884 22.544C124.588 22.128 125.132 21.52 125.516 20.72H129.38C128.82 22.432 127.836 23.768 126.428 24.728C125.036 25.672 123.396 26.144 121.508 26.144C119.908 26.144 118.46 25.784 117.164 25.064C115.884 24.328 114.868 23.312 114.116 22.016C113.38 20.72 113.012 19.248 113.012 17.6ZM135.61 14.768C136.042 14.064 136.602 13.512 137.29 13.112C137.994 12.712 138.794 12.512 139.69 12.512V16.04H138.802C137.746 16.04 136.946 16.288 136.402 16.784C135.874 17.28 135.61 18.144 135.61 19.376V26H132.25V12.704H135.61V14.768ZM154.313 19.064C154.313 19.544 154.281 19.976 154.217 20.36H144.497C144.577 21.32 144.913 22.072 145.505 22.616C146.097 23.16 146.825 23.432 147.689 23.432C148.937 23.432 149.825 22.896 150.353 21.824H153.977C153.593 23.104 152.857 24.16 151.769 24.992C150.681 25.808 149.345 26.216 147.761 26.216C146.481 26.216 145.329 25.936 144.305 25.376C143.297 24.8 142.505 23.992 141.929 22.952C141.369 21.912 141.089 20.712 141.089 19.352C141.089 17.976 141.369 16.768 141.929 15.728C142.489 14.688 143.273 13.888 144.281 13.328C145.289 12.768 146.449 12.488 147.761 12.488C149.025 12.488 150.153 12.76 151.145 13.304C152.153 13.848 152.929 14.624 153.473 15.632C154.033 16.624 154.313 17.768 154.313 19.064ZM150.833 18.104C150.817 17.24 150.505 16.552 149.897 16.04C149.289 15.512 148.545 15.248 147.665 15.248C146.833 15.248 146.129 15.504 145.553 16.016C144.993 16.512 144.649 17.208 144.521 18.104H150.833ZM155.901 19.304C155.901 17.96 156.165 16.768 156.693 15.728C157.237 14.688 157.965 13.888 158.877 13.328C159.805 12.768 160.837 12.488 161.973 12.488C162.965 12.488 163.829 12.688 164.565 13.088C165.317 13.488 165.917 13.992 166.365 14.6V12.704H169.749V26H166.365V24.056C165.933 24.68 165.333 25.2 164.565 25.616C163.813 26.016 162.941 26.216 161.949 26.216C160.829 26.216 159.805 25.928 158.877 25.352C157.965 24.776 157.237 23.968 156.693 22.928C156.165 21.872 155.901 20.664 155.901 19.304ZM166.365 19.352C166.365 18.536 166.205 17.84 165.885 17.264C165.565 16.672 165.133 16.224 164.589 15.92C164.045 15.6 163.461 15.44 162.837 15.44C162.213 15.44 161.637 15.592 161.109 15.896C160.581 16.2 160.149 16.648 159.813 17.24C159.493 17.816 159.333 18.504 159.333 19.304C159.333 20.104 159.493 20.808 159.813 21.416C160.149 22.008 160.581 22.464 161.109 22.784C161.653 23.104 162.229 23.264 162.837 23.264C163.461 23.264 164.045 23.112 164.589 22.808C165.133 22.488 165.565 22.04 165.885 21.464C166.205 20.872 166.365 20.168 166.365 19.352ZM176.943 15.464V21.896C176.943 22.344 177.047 22.672 177.255 22.88C177.479 23.072 177.847 23.168 178.359 23.168H179.919V26H177.807C174.975 26 173.559 24.624 173.559 21.872V15.464H171.975V12.704H173.559V9.416H176.943V12.704H179.919V15.464H176.943ZM184.04 11.12C183.448 11.12 182.952 10.936 182.552 10.568C182.168 10.184 181.976 9.712 181.976 9.152C181.976 8.592 182.168 8.128 182.552 7.76C182.952 7.376 183.448 7.184 184.04 7.184C184.632 7.184 185.12 7.376 185.504 7.76C185.904 8.128 186.104 8.592 186.104 9.152C186.104 9.712 185.904 10.184 185.504 10.568C185.12 10.936 184.632 11.12 184.04 11.12ZM185.696 12.704V26H182.336V12.704H185.696ZM194.559 22.904L197.919 12.704H201.495L196.575 26H192.495L187.599 12.704H191.199L194.559 22.904ZM215.743 19.064C215.743 19.544 215.711 19.976 215.647 20.36H205.927C206.007 21.32 206.343 22.072 206.935 22.616C207.527 23.16 208.255 23.432 209.119 23.432C210.367 23.432 211.255 22.896 211.783 21.824H215.407C215.023 23.104 214.287 24.16 213.199 24.992C212.111 25.808 210.775 26.216 209.191 26.216C207.911 26.216 206.759 25.936 205.735 25.376C204.727 24.8 203.935 23.992 203.359 22.952C202.799 21.912 202.519 20.712 202.519 19.352C202.519 17.976 202.799 16.768 203.359 15.728C203.919 14.688 204.703 13.888 205.711 13.328C206.719 12.768 207.879 12.488 209.191 12.488C210.455 12.488 211.583 12.76 212.575 13.304C213.583 13.848 214.359 14.624 214.903 15.632C215.463 16.624 215.743 17.768 215.743 19.064ZM212.263 18.104C212.247 17.24 211.935 16.552 211.327 16.04C210.719 15.512 209.975 15.248 209.095 15.248C208.263 15.248 207.559 15.504 206.983 16.016C206.423 16.512 206.079 17.208 205.951 18.104H212.263Z" fill="#7456FF"/>
</svg>
