<svg width="50" height="50" viewBox="0 0 50 50" fill="none" xmlns="http://www.w3.org/2000/svg">
<rect opacity="0.1" x="0.5" y="0.5" width="49" height="49" rx="24.5" fill="#7456FF" stroke="#0F0F0F"/>
<path d="M25.0011 13C21.7421 13 21.3331 13.0143 20.0531 13.0725C18.7756 13.131 17.9036 13.3333 17.1405 13.63C16.3513 13.9365 15.6818 14.3465 15.0148 15.0138C14.3473 15.6808 13.9373 16.3503 13.6298 17.1393C13.3323 17.9026 13.1298 18.7748 13.0723 20.0518C13.015 21.3318 13 21.7411 13 25.0001C13 28.2592 13.0145 28.6669 13.0725 29.9469C13.1313 31.2244 13.3335 32.0964 13.63 32.8595C13.9368 33.6487 14.3468 34.3182 15.014 34.9852C15.6808 35.6527 16.3503 36.0637 17.139 36.3702C17.9026 36.667 18.7748 36.8692 20.0521 36.9277C21.3321 36.986 21.7408 37.0002 24.9996 37.0002C28.2589 37.0002 28.6667 36.986 29.9467 36.9277C31.2242 36.8692 32.0972 36.667 32.8607 36.3702C33.6497 36.0637 34.3182 35.6527 34.985 34.9852C35.6525 34.3182 36.0625 33.6487 36.37 32.8597C36.665 32.0964 36.8675 31.2242 36.9275 29.9472C36.985 28.6672 37 28.2592 37 25.0001C37 21.7411 36.985 21.3321 36.9275 20.0521C36.8675 18.7746 36.665 17.9026 36.37 17.1395C36.0625 16.3503 35.6525 15.6808 34.985 15.0138C34.3175 14.3463 33.65 13.9363 32.86 13.63C32.0949 13.3333 31.2224 13.131 29.9449 13.0725C28.6649 13.0143 28.2574 13 24.9974 13H25.0011ZM23.9246 15.1625C24.2441 15.162 24.6006 15.1625 25.0011 15.1625C28.2052 15.1625 28.5849 15.174 29.8502 15.2315C31.0202 15.285 31.6552 15.4805 32.0782 15.6448C32.6382 15.8623 33.0375 16.1223 33.4572 16.5423C33.8772 16.9623 34.1372 17.3623 34.3552 17.9223C34.5195 18.3448 34.7152 18.9798 34.7685 20.1498C34.826 21.4148 34.8385 21.7948 34.8385 24.9974C34.8385 28.1999 34.826 28.5799 34.7685 29.8449C34.715 31.0149 34.5195 31.6499 34.3552 32.0724C34.1377 32.6325 33.8772 33.0312 33.4572 33.451C33.0372 33.871 32.6385 34.131 32.0782 34.3485C31.6557 34.5135 31.0202 34.7085 29.8502 34.762C28.5852 34.8195 28.2052 34.832 25.0011 34.832C21.7968 34.832 21.4171 34.8195 20.1521 34.762C18.9821 34.708 18.3471 34.5125 17.9238 34.3482C17.3638 34.1307 16.9638 33.8707 16.5438 33.4507C16.1238 33.0307 15.8638 32.6317 15.6458 32.0714C15.4815 31.6489 15.2858 31.0139 15.2325 29.8439C15.175 28.5789 15.1635 28.1989 15.1635 24.9944C15.1635 21.7898 15.175 21.4118 15.2325 20.1468C15.286 18.9768 15.4815 18.3418 15.6458 17.9188C15.8633 17.3588 16.1238 16.9588 16.5438 16.5388C16.9638 16.1188 17.3638 15.8588 17.9238 15.6408C18.3468 15.4758 18.9821 15.2808 20.1521 15.227C21.2591 15.177 21.6881 15.162 23.9246 15.1595V15.1625ZM31.4067 17.155C30.6117 17.155 29.9667 17.7993 29.9667 18.5946C29.9667 19.3896 30.6117 20.0346 31.4067 20.0346C32.2017 20.0346 32.8467 19.3896 32.8467 18.5946C32.8467 17.7995 32.2017 17.1545 31.4067 17.1545V17.155ZM25.0011 18.8376C21.5978 18.8376 18.8386 21.5968 18.8386 25.0001C18.8386 28.4034 21.5978 31.1614 25.0011 31.1614C28.4044 31.1614 31.1627 28.4034 31.1627 25.0001C31.1627 21.5968 28.4042 18.8376 25.0009 18.8376H25.0011ZM25.0011 21.0001C27.2101 21.0001 29.0012 22.7909 29.0012 25.0001C29.0012 27.2091 27.2101 29.0002 25.0011 29.0002C22.7919 29.0002 21.0011 27.2091 21.0011 25.0001C21.0011 22.7909 22.7919 21.0001 25.0011 21.0001Z" fill="url(#paint0_linear_50_18)"/>
<defs>
<linearGradient id="paint0_linear_50_18" x1="13" y1="23.8435" x2="38.6768" y2="29.9513" gradientUnits="userSpaceOnUse">
<stop stop-color="#7456FF"/>
<stop offset="1" stop-color="#8368FF"/>
</linearGradient>
</defs>
</svg>
