<svg width="26" height="26" viewBox="0 0 26 26" fill="none" xmlns="http://www.w3.org/2000/svg">
<path d="M5.11768 15.6145C4.431 14.325 4.07288 12.886 4.07503 11.425C4.07503 6.49578 8.07081 2.5 13 2.5C17.9293 2.5 21.925 6.49578 21.925 11.425C21.9286 13.5304 21.1844 15.5687 19.825 17.1764L19.8145 17.1895C19.8109 17.1927 19.8077 17.1969 19.8051 17.2H19.825L14.5288 22.8228C14.3325 23.0312 14.0956 23.1972 13.8328 23.3107C13.5699 23.4242 13.2866 23.4828 13.0003 23.4828C12.714 23.4828 12.4307 23.4242 12.1678 23.3107C11.905 23.1972 11.6681 23.0312 11.4718 22.8228L6.17503 17.2H6.19498L6.18658 17.19L6.18554 17.189C6.14773 17.1438 6.10993 17.0987 6.07266 17.0525C5.70851 16.6049 5.38852 16.1232 5.11716 15.614L5.11768 15.6145ZM12.9979 14.8375C13.8334 14.8375 14.6346 14.5056 15.2253 13.9149C15.8161 13.3241 16.1479 12.5229 16.1479 11.6875C16.1479 10.8521 15.8161 10.0509 15.2253 9.46011C14.6346 8.86937 13.8334 8.5375 12.9979 8.5375C12.1625 8.5375 11.3613 8.86937 10.7705 9.46011C10.1798 10.0509 9.84793 10.8521 9.84793 11.6875C9.84793 12.5229 10.1798 13.3241 10.7705 13.9149C11.3613 14.5056 12.1625 14.8375 12.9979 14.8375Z" fill="#F8F8F8"/>
</svg>
