<svg width="1130" height="144" viewBox="0 0 1130 144" fill="none" xmlns="http://www.w3.org/2000/svg">
<path d="M51 2.39999H52V1.39999H51V2.39999ZM51 142V143H52V142H51ZM23 142H22V143H23V142ZM23 51.2H24L22.0754 50.8191L23 51.2ZM-14.4 142V143H-13.7304L-13.4754 142.381L-14.4 142ZM-35.6 142L-36.5239 142.383L-36.2682 143H-35.6V142ZM-73.2 51.2L-72.2761 50.8174L-74.2 51.2H-73.2ZM-73.2 142V143H-72.2V142H-73.2ZM-101.2 142H-102.2V143H-101.2V142ZM-101.2 2.39999V1.39999H-102.2V2.39999H-101.2ZM-69.4 2.39999L-68.4806 2.00672L-68.7401 1.39999H-69.4V2.39999ZM-25 106.2L-25.9194 106.593L-25 108.743L-24.0806 106.593L-25 106.2ZM19.4 2.39999V1.39999H18.7401L18.4806 2.00672L19.4 2.39999ZM50 2.39999V142H52V2.39999H50ZM51 141H23V143H51V141ZM24 142V51.2H22V142H24ZM22.0754 50.8191L-15.3246 141.619L-13.4754 142.381L23.9247 51.5808L22.0754 50.8191ZM-14.4 141H-35.6V143H-14.4V141ZM-34.6761 141.617L-72.2761 50.8174L-74.1239 51.5826L-36.5239 142.383L-34.6761 141.617ZM-74.2 51.2V142H-72.2V51.2H-74.2ZM-73.2 141H-101.2V143H-73.2V141ZM-100.2 142V2.39999H-102.2V142H-100.2ZM-101.2 3.39999H-69.4V1.39999H-101.2V3.39999ZM-70.3194 2.79327L-25.9194 106.593L-24.0806 105.807L-68.4806 2.00672L-70.3194 2.79327ZM-24.0806 106.593L20.3194 2.79327L18.4806 2.00672L-25.9194 105.807L-24.0806 106.593ZM19.4 3.39999H51V1.39999H19.4V3.39999ZM189.683 2.39999L190.57 2.86043L191.328 1.39999H189.683V2.39999ZM142.483 93.4L141.595 92.9396L141.483 93.1561V93.4H142.483ZM142.483 142V143H143.483V142H142.483ZM114.483 142H113.483V143H114.483V142ZM114.483 93.4H115.483V93.1552L115.37 92.938L114.483 93.4ZM67.0828 2.39999V1.39999H65.4344L66.1959 2.86196L67.0828 2.39999ZM98.6828 2.39999L99.5878 1.97447L99.3176 1.39999H98.6828V2.39999ZM128.683 66.2L127.778 66.6255L128.686 68.5565L129.589 66.6232L128.683 66.2ZM158.483 2.39999V1.39999H157.846L157.577 1.9768L158.483 2.39999ZM188.795 1.93957L141.595 92.9396L143.371 93.8604L190.57 2.86043L188.795 1.93957ZM141.483 93.4V142H143.483V93.4H141.483ZM142.483 141H114.483V143H142.483V141ZM115.483 142V93.4H113.483V142H115.483ZM115.37 92.938L67.9697 1.93803L66.1959 2.86196L113.596 93.862L115.37 92.938ZM67.0828 3.39999H98.6828V1.39999H67.0828V3.39999ZM97.7779 2.82552L127.778 66.6255L129.588 65.7745L99.5878 1.97447L97.7779 2.82552ZM129.589 66.6232L159.389 2.8232L157.577 1.9768L127.777 65.7768L129.589 66.6232ZM158.483 3.39999H189.683V1.39999H158.483V3.39999ZM349.888 66.6L349.012 66.1174L349.008 66.1243L349.004 66.1313L349.888 66.6ZM333.288 82.4L332.822 81.5151L332.815 81.5185L333.288 82.4ZM281.487 88.4V87.4H280.487V88.4H281.487ZM281.487 142V143H282.487V142H281.487ZM253.487 142H252.487V143H253.487V142ZM253.487 2.39999V1.39999H252.487V2.39999H253.487ZM332.488 8L332.047 8.89755L332.488 8ZM349.488 23.4L348.619 23.8961L348.623 23.9027L348.627 23.9093L349.488 23.4ZM320.888 60.6L321.568 61.3328L321.575 61.3264L321.582 61.3198L320.888 60.6ZM281.487 25.2V24.2H280.487V25.2H281.487ZM281.487 65.8H280.487V66.8H281.487V65.8ZM354.288 45.6C354.288 52.8981 352.53 59.732 349.012 66.1174L350.763 67.0826C354.445 60.4013 356.288 53.2353 356.288 45.6H354.288ZM349.004 66.1313C345.646 72.4598 340.273 77.5932 332.822 81.5151L333.753 83.2849C341.502 79.2068 347.195 73.8069 350.771 67.0687L349.004 66.1313ZM332.815 81.5185C325.536 85.4181 316.245 87.4 304.888 87.4V89.4C316.463 89.4 326.106 87.3819 333.76 83.2815L332.815 81.5185ZM304.888 87.4H281.487V89.4H304.888V87.4ZM280.487 88.4V142H282.487V88.4H280.487ZM281.487 141H253.487V143H281.487V141ZM254.487 142V2.39999H252.487V142H254.487ZM253.487 3.39999H304.888V1.39999H253.487V3.39999ZM304.888 3.39999C315.575 3.39999 324.616 5.24756 332.047 8.89755L332.928 7.10244C325.159 3.28577 315.8 1.39999 304.888 1.39999V3.39999ZM332.047 8.89755C339.491 12.5542 344.997 17.5575 348.619 23.8961L350.356 22.9038C346.511 16.1758 340.684 10.9124 332.928 7.10244L332.047 8.89755ZM348.627 23.9093C352.394 30.2749 354.288 37.4961 354.288 45.6H356.288C356.288 37.1706 354.314 29.5918 350.348 22.8907L348.627 23.9093ZM303.688 66.8C311.546 66.8 317.574 65.0416 321.568 61.3328L320.207 59.8672C316.735 63.0917 311.296 64.8 303.688 64.8V66.8ZM321.582 61.3198C325.554 57.489 327.487 52.2037 327.487 45.6H325.487C325.487 51.7963 323.687 56.511 320.193 59.8802L321.582 61.3198ZM327.487 45.6C327.487 38.6153 325.531 33.2021 321.454 29.5547C317.399 25.9263 311.416 24.2 303.688 24.2V26.2C311.159 26.2 316.576 27.8737 320.121 31.0452C323.644 34.1978 325.487 38.9847 325.487 45.6H327.487ZM303.688 24.2H281.487V26.2H303.688V24.2ZM280.487 25.2V65.8H282.487V25.2H280.487ZM281.487 66.8H303.688V64.8H281.487V66.8ZM447.167 142L446.297 142.493L446.584 143H447.167V142ZM416.367 87.6L417.237 87.1073L416.95 86.6H416.367V87.6ZM403.167 87.6V86.6H402.167V87.6H403.167ZM403.167 142V143H404.167V142H403.167ZM375.167 142H374.167V143H375.167V142ZM375.167 2.39999V1.39999H374.167V2.39999H375.167ZM455.167 8.2L454.714 9.09136L454.726 9.09755L455.167 8.2ZM472.167 23.6L471.299 24.0961L471.305 24.1067L471.311 24.1171L472.167 23.6ZM469.967 70.2L470.776 70.7882L470.781 70.7812L469.967 70.2ZM446.167 85.4L445.91 84.4336L444.636 84.7724L445.306 85.9082L446.167 85.4ZM479.567 142V143H481.318L480.428 141.492L479.567 142ZM403.167 66.6H402.167V67.6H403.167V66.6ZM443.567 61.2L444.261 61.9198L444.268 61.9135L444.274 61.9071L443.567 61.2ZM443.567 31L442.873 31.7198L442.88 31.7264L442.887 31.7328L443.567 31ZM403.167 25.6V24.6H402.167V25.6H403.167ZM448.037 141.507L417.237 87.1073L415.497 88.0927L446.297 142.493L448.037 141.507ZM416.367 86.6H403.167V88.6H416.367V86.6ZM402.167 87.6V142H404.167V87.6H402.167ZM403.167 141H375.167V143H403.167V141ZM376.167 142V2.39999H374.167V142H376.167ZM375.167 3.39999H427.567V1.39999H375.167V3.39999ZM427.567 3.39999C438.25 3.39999 447.287 5.31257 454.714 9.09127L455.621 7.30872C447.848 3.35409 438.484 1.39999 427.567 1.39999V3.39999ZM454.726 9.09755C462.17 12.7542 467.677 17.7575 471.299 24.0961L473.035 23.1039C469.191 16.3758 463.364 11.1124 455.608 7.30244L454.726 9.09755ZM471.311 24.1171C475.077 30.3501 476.967 37.369 476.967 45.2H478.967C478.967 37.031 476.991 29.6499 473.023 23.0829L471.311 24.1171ZM476.967 45.2C476.967 54.1922 474.365 62.3222 469.153 69.6188L470.781 70.7812C476.236 63.1445 478.967 54.6078 478.967 45.2H476.967ZM469.158 69.6118C463.986 76.7239 456.268 81.6802 445.91 84.4336L446.424 86.3664C457.133 83.5198 465.282 78.3427 470.776 70.7882L469.158 69.6118ZM445.306 85.9082L478.706 142.508L480.428 141.492L447.028 84.8918L445.306 85.9082ZM479.567 141H447.167V143H479.567V141ZM403.167 67.6H426.567V65.6H403.167V67.6ZM426.567 67.6C434.307 67.6 440.27 65.7682 444.261 61.9198L442.873 60.4801C439.397 63.8318 434.028 65.6 426.567 65.6V67.6ZM444.274 61.9071C448.238 57.9438 450.167 52.5318 450.167 45.8H448.167C448.167 52.1349 446.363 56.9895 442.86 60.4929L444.274 61.9071ZM450.167 45.8C450.167 39.198 448.234 33.9693 444.248 30.2672L442.887 31.7328C446.367 34.9641 448.167 39.602 448.167 45.8H450.167ZM444.261 30.2802C440.27 26.4317 434.307 24.6 426.567 24.6V26.6C434.028 26.6 439.397 28.3682 442.873 31.7198L444.261 30.2802ZM426.567 24.6H403.167V26.6H426.567V24.6ZM402.167 25.6V66.6H404.167V25.6H402.167ZM532.092 134.2L532.581 133.328L532.092 134.2ZM506.092 108.8L505.229 109.305L505.232 109.31L506.092 108.8ZM506.092 35.2L506.953 35.7098L506.955 35.7052L506.092 35.2ZM532.092 9.59999L531.603 8.72784L532.092 9.59999ZM604.092 9.59999L603.598 10.4696L603.603 10.4721L604.092 9.59999ZM629.892 35.2L629.025 35.6973L629.028 35.7036L629.032 35.7098L629.892 35.2ZM629.892 108.8L629.029 108.295L629.027 108.298L629.892 108.8ZM604.092 134.2L603.603 133.328L604.092 134.2ZM590.292 112.8L590.796 113.664L590.803 113.66L590.809 113.656L590.292 112.8ZM605.292 96.4L606.183 96.8539L605.292 96.4ZM605.292 47.4L604.401 47.8539L604.405 47.8608L605.292 47.4ZM590.292 31.2L589.788 32.0638L590.292 31.2ZM545.692 31.2L545.196 30.3317L545.188 30.3362L545.692 31.2ZM530.692 47.4L531.58 47.8608L531.583 47.8539L530.692 47.4ZM530.692 96.4L531.583 95.9461L530.692 96.4ZM545.692 112.8L545.175 113.656L545.185 113.662L545.196 113.668L545.692 112.8ZM568.092 142.4C555.189 142.4 543.359 139.374 532.581 133.328L531.603 135.072C542.692 141.293 554.862 144.4 568.092 144.4V142.4ZM532.581 133.328C521.802 127.281 513.263 118.939 506.952 108.29L505.232 109.31C511.721 120.261 520.516 128.853 531.603 135.072L532.581 133.328ZM506.955 108.295C500.652 97.5275 497.492 85.3712 497.492 71.8H495.492C495.492 85.6955 498.732 98.2058 505.229 109.305L506.955 108.295ZM497.492 71.8C497.492 58.3639 500.651 46.3427 506.952 35.7098L505.232 34.6902C498.733 45.6573 495.492 58.0361 495.492 71.8H497.492ZM506.955 35.7052C513.266 24.9235 521.805 16.5176 532.581 10.4721L531.603 8.72784C520.513 14.9491 511.718 23.6098 505.229 34.6948L506.955 35.7052ZM532.581 10.4721C543.359 4.42625 555.189 1.4 568.092 1.4V-0.599998C554.862 -0.599998 542.692 2.50707 531.603 8.72784L532.581 10.4721ZM568.092 1.4C581.13 1.4 592.958 4.42711 603.598 10.4696L604.586 8.73042C593.626 2.50622 581.454 -0.599998 568.092 -0.599998V1.4ZM603.603 10.4721C614.378 16.5165 622.847 24.9199 629.025 35.6973L630.76 34.7027C624.404 23.6134 615.673 14.9501 604.581 8.72784L603.603 10.4721ZM629.032 35.7098C635.333 46.3427 638.492 58.3639 638.492 71.8H640.492C640.492 58.0361 637.252 45.6573 630.753 34.6902L629.032 35.7098ZM638.492 71.8C638.492 85.3712 635.332 97.5275 629.029 108.295L630.755 109.305C637.252 98.2058 640.492 85.6955 640.492 71.8H638.492ZM629.027 108.298C622.851 118.943 614.381 127.282 603.603 133.328L604.581 135.072C615.67 128.852 624.4 120.257 630.757 109.302L629.027 108.298ZM603.603 133.328C592.826 139.374 580.995 142.4 568.092 142.4V144.4C581.323 144.4 593.492 141.293 604.581 135.072L603.603 133.328ZM568.092 119.4C576.645 119.4 584.224 117.498 590.796 113.664L589.788 111.936C583.561 115.569 576.339 117.4 568.092 117.4V119.4ZM590.809 113.656C597.379 109.687 602.504 104.076 606.183 96.8539L604.401 95.9461C600.88 102.857 596.006 108.18 589.775 111.944L590.809 113.656ZM606.183 96.8539C609.867 89.6238 611.692 81.2633 611.692 71.8H609.692C609.692 81.0034 607.918 89.0428 604.401 95.9461L606.183 96.8539ZM611.692 71.8C611.692 62.3373 609.867 54.0401 606.18 46.9392L604.405 47.8608C607.918 54.6266 609.692 62.596 609.692 71.8H611.692ZM606.183 46.9461C602.503 39.7211 597.374 34.1731 590.796 30.3362L589.788 32.0638C596.011 35.6936 600.882 40.9456 604.401 47.8539L606.183 46.9461ZM590.796 30.3362C584.224 26.5023 576.645 24.6 568.092 24.6V26.6C576.339 26.6 583.561 28.4311 589.788 32.0638L590.796 30.3362ZM568.092 24.6C559.539 24.6 551.897 26.5024 545.196 30.3318L546.188 32.0682C552.554 28.431 559.846 26.6 568.092 26.6V24.6ZM545.188 30.3362C538.611 34.1731 533.482 39.7211 529.801 46.9461L531.583 47.8539C535.103 40.9456 539.974 35.6936 546.196 32.0638L545.188 30.3362ZM529.805 46.9392C526.118 54.0401 524.292 62.3373 524.292 71.8H526.292C526.292 62.596 528.067 54.6266 531.58 47.8608L529.805 46.9392ZM524.292 71.8C524.292 81.2633 526.118 89.6238 529.801 96.8539L531.583 95.9461C528.066 89.0428 526.292 81.0034 526.292 71.8H524.292ZM529.801 96.8539C533.48 104.076 538.606 109.687 545.175 113.656L546.209 111.944C539.979 108.18 535.104 102.857 531.583 95.9461L529.801 96.8539ZM545.196 113.668C551.897 117.498 559.539 119.4 568.092 119.4V117.4C559.846 117.4 552.554 115.569 546.188 111.932L545.196 113.668ZM741.723 2.39999H742.723V1.39999H741.723V2.39999ZM729.923 132.2L730.612 132.925L730.618 132.919L729.923 132.2ZM665.923 131.8L665.234 132.525L665.24 132.53L665.923 131.8ZM653.723 99.4V98.4H652.723V99.4H653.723ZM681.723 99.4L682.723 99.3778L682.701 98.4H681.723V99.4ZM685.923 113.4L685.143 114.025L685.15 114.034L685.158 114.043L685.923 113.4ZM709.523 113.6L710.292 114.24L709.523 113.6ZM713.523 2.39999V1.39999H712.523V2.39999H713.523ZM740.723 2.39999V100.4H742.723V2.39999H740.723ZM740.723 100.4C740.723 113.799 736.855 124.113 729.229 131.481L730.618 132.919C738.725 125.087 742.723 114.201 742.723 100.4H740.723ZM729.235 131.475C721.593 138.728 711.326 142.4 698.323 142.4V144.4C711.721 144.4 722.521 140.605 730.612 132.925L729.235 131.475ZM698.323 142.4C685.196 142.4 674.656 138.599 666.607 131.07L665.24 132.53C673.725 140.467 684.784 144.4 698.323 144.4V142.4ZM666.612 131.075C658.723 123.574 654.723 113.062 654.723 99.4H652.723C652.723 113.472 656.858 124.56 665.234 132.525L666.612 131.075ZM653.723 100.4H681.723V98.4H653.723V100.4ZM680.724 99.4222C680.86 105.555 682.293 110.463 685.143 114.025L686.704 112.775C684.221 109.671 682.854 105.245 682.723 99.3778L680.724 99.4222ZM685.158 114.043C688.185 117.647 692.491 119.4 697.923 119.4V117.4C692.955 117.4 689.262 115.82 686.689 112.757L685.158 114.043ZM697.923 119.4C703.216 119.4 707.394 117.717 710.292 114.24L708.755 112.96C706.32 115.883 702.764 117.4 697.923 117.4V119.4ZM710.292 114.24C713.153 110.807 714.523 106.153 714.523 100.4H712.523C712.523 105.847 711.227 109.993 708.755 112.96L710.292 114.24ZM714.523 100.4V2.39999H712.523V100.4H714.523ZM713.523 3.39999H741.723V1.39999H713.523V3.39999ZM802.386 25V24H801.386V25H802.386ZM802.386 60H801.386V61H802.386V60ZM849.386 60H850.386V59H849.386V60ZM849.386 82.2V83.2H850.386V82.2H849.386ZM802.386 82.2V81.2H801.386V82.2H802.386ZM802.386 119.2H801.386V120.2H802.386V119.2ZM855.386 119.2H856.386V118.2H855.386V119.2ZM855.386 142V143H856.386V142H855.386ZM774.386 142H773.386V143H774.386V142ZM774.386 2.19999V1.19999H773.386V2.19999H774.386ZM855.386 2.19999H856.386V1.19999H855.386V2.19999ZM855.386 25V26H856.386V25H855.386ZM801.386 25V60H803.386V25H801.386ZM802.386 61H849.386V59H802.386V61ZM848.386 60V82.2H850.386V60H848.386ZM849.386 81.2H802.386V83.2H849.386V81.2ZM801.386 82.2V119.2H803.386V82.2H801.386ZM802.386 120.2H855.386V118.2H802.386V120.2ZM854.386 119.2V142H856.386V119.2H854.386ZM855.386 141H774.386V143H855.386V141ZM775.386 142V2.19999H773.386V142H775.386ZM774.386 3.19999H855.386V1.19999H774.386V3.19999ZM854.386 2.19999V25H856.386V2.19999H854.386ZM855.386 24H802.386V26H855.386V24ZM883.231 35.2L882.364 34.7027L882.362 34.7062L883.231 35.2ZM908.631 9.8L909.121 10.6716L909.125 10.6696L908.631 9.8ZM1010.43 45.8V46.8H1011.81L1011.38 45.4865L1010.43 45.8ZM978.231 45.8L977.33 46.2327L977.602 46.8H978.231V45.8ZM964.631 30.8L964.129 31.6645L964.137 31.6694L964.631 30.8ZM922.831 31.6L923.343 32.4591L923.348 32.4559L922.831 31.6ZM908.031 47.6L907.144 47.1392L907.14 47.146L907.137 47.1528L908.031 47.6ZM908.031 96.4L907.133 96.8404L907.138 96.8507L907.144 96.8608L908.031 96.4ZM922.831 112.6L922.306 113.451L922.317 113.458L922.327 113.464L922.831 112.6ZM964.631 113.2L965.134 114.065L965.14 114.061L964.631 113.2ZM978.231 98V97H977.602L977.33 97.5673L978.231 98ZM1010.43 98L1011.38 98.3109L1011.81 97H1010.43V98ZM985.831 131.4L986.393 132.228L986.395 132.226L985.831 131.4ZM908.631 134.2L908.133 135.067L908.139 135.071L908.146 135.074L908.631 134.2ZM883.231 108.8L882.362 109.294L882.366 109.302L883.231 108.8ZM875.031 72C875.031 58.421 878.062 46.3278 884.101 35.6938L882.362 34.7062C876.134 45.6722 873.031 58.1123 873.031 72H875.031ZM884.099 35.6973C890.279 24.9156 898.617 16.5804 909.121 10.6716L908.141 8.92842C897.312 15.0196 888.717 23.6177 882.364 34.7027L884.099 35.6973ZM909.125 10.6696C919.764 4.62798 931.658 1.6 944.831 1.6V-0.400002C931.338 -0.400002 919.099 2.70535 908.137 8.93044L909.125 10.6696ZM944.831 1.6C960.251 1.6 973.717 5.55055 985.268 13.4262L986.395 11.7738C974.479 3.64944 960.612 -0.400002 944.831 -0.400002V1.6ZM985.268 13.4262C996.811 21.2962 1004.88 32.1781 1009.48 46.1135L1011.38 45.4865C1006.65 31.1552 998.319 19.9038 986.395 11.7738L985.268 13.4262ZM1010.43 44.8H978.231V46.8H1010.43V44.8ZM979.133 45.3673C975.854 38.5354 971.186 33.3742 965.125 29.9305L964.137 31.6694C969.81 34.8925 974.209 39.7313 977.33 46.2327L979.133 45.3673ZM965.134 29.9355C959.227 26.5011 952.382 24.8 944.631 24.8V26.8C952.081 26.8 958.569 28.4322 964.129 31.6645L965.134 29.9355ZM944.631 24.8C936.332 24.8 928.884 26.7749 922.314 30.7441L923.348 32.4559C929.579 28.6917 936.664 26.8 944.631 26.8V24.8ZM922.319 30.7409C915.881 34.5762 910.823 40.0529 907.144 47.1392L908.919 48.0608C912.439 41.2804 917.248 36.0904 923.343 32.4591L922.319 30.7409ZM907.137 47.1528C903.588 54.2505 901.831 62.5427 901.831 72H903.831C903.831 62.7906 905.541 54.8161 908.926 48.0472L907.137 47.1528ZM901.831 72C901.831 81.327 903.589 89.6153 907.133 96.8404L908.929 95.9596C905.54 89.0513 903.831 81.073 903.831 72H901.831ZM907.144 96.8608C910.822 103.944 915.876 109.484 922.306 113.451L923.356 111.749C917.253 107.983 912.441 102.722 908.919 95.9392L907.144 96.8608ZM922.327 113.464C928.895 117.295 936.339 119.2 944.631 119.2V117.2C936.657 117.2 929.568 115.372 923.335 111.736L922.327 113.464ZM944.631 119.2C952.382 119.2 959.227 117.499 965.134 114.064L964.129 112.335C958.569 115.568 952.081 117.2 944.631 117.2V119.2ZM965.14 114.061C971.192 110.485 975.855 105.262 979.133 98.4327L977.33 97.5673C974.208 104.071 969.804 108.982 964.123 112.339L965.14 114.061ZM978.231 99H1010.43V97H978.231V99ZM1009.48 97.6891C1004.88 111.759 996.808 122.706 985.268 130.574L986.395 132.226C998.321 124.094 1006.65 112.775 1011.38 98.3109L1009.48 97.6891ZM985.27 130.572C973.855 138.313 960.39 142.2 944.831 142.2V144.2C960.739 144.2 974.607 140.22 986.393 132.228L985.27 130.572ZM944.831 142.2C931.654 142.2 919.757 139.237 909.117 133.326L908.146 135.074C919.106 141.163 931.342 144.2 944.831 144.2V142.2ZM909.13 133.333C898.617 127.289 890.276 118.949 884.096 108.298L882.366 109.302C888.72 120.251 897.312 128.845 908.133 135.067L909.13 133.333ZM884.101 108.306C878.062 97.6722 875.031 85.5789 875.031 72H873.031C873.031 85.8877 876.134 98.3278 882.362 109.294L884.101 108.306ZM1129.35 2.39999H1130.35V1.39999H1129.35V2.39999ZM1129.35 25V26H1130.35V25H1129.35ZM1092.15 25V24H1091.15V25H1092.15ZM1092.15 142V143H1093.15V142H1092.15ZM1064.15 142H1063.15V143H1064.15V142ZM1064.15 25H1065.15V24H1064.15V25ZM1026.95 25H1025.95V26H1026.95V25ZM1026.95 2.39999V1.39999H1025.95V2.39999H1026.95ZM1128.35 2.39999V25H1130.35V2.39999H1128.35ZM1129.35 24H1092.15V26H1129.35V24ZM1091.15 25V142H1093.15V25H1091.15ZM1092.15 141H1064.15V143H1092.15V141ZM1065.15 142V25H1063.15V142H1065.15ZM1064.15 24H1026.95V26H1064.15V24ZM1027.95 25V2.39999H1025.95V25H1027.95ZM1026.95 3.39999H1129.35V1.39999H1026.95V3.39999Z" fill="#999999" fill-opacity="0.2"/>
</svg>
