<svg width="50" height="50" viewBox="0 0 50 50" fill="none" xmlns="http://www.w3.org/2000/svg">
<rect opacity="0.1" x="0.5" y="0.5" width="49" height="49" rx="24.5" fill="#7456FF" stroke="#0F0F0F"/>
<path d="M32.37 21.275V21.775C32.37 26.81 28.55 32.58 21.56 32.58C19.4965 32.5845 17.4768 31.9848 15.75 30.855C16.0499 30.8957 16.3524 30.9141 16.655 30.91C18.3655 30.9147 20.0279 30.3441 21.375 29.29C20.5803 29.2783 19.8096 29.0164 19.1723 28.5416C18.535 28.0667 18.0635 27.4031 17.825 26.645C18.0617 26.6952 18.303 26.7203 18.545 26.72C18.8829 26.7201 19.2192 26.6747 19.545 26.585C18.6843 26.4134 17.91 25.9481 17.3545 25.2686C16.799 24.5891 16.497 23.7376 16.5 22.86V22.81C17.0266 23.1042 17.617 23.2655 18.22 23.28C17.4173 22.7518 16.8466 21.937 16.6245 21.0021C16.4024 20.0672 16.5456 19.0828 17.025 18.25C17.9801 19.4248 19.1718 20.3853 20.5225 21.0693C21.8733 21.7533 23.3528 22.1454 24.865 22.22C24.7901 21.9362 24.7548 21.6435 24.76 21.35C24.7318 20.5745 24.9434 19.8091 25.3659 19.1581C25.7883 18.5071 26.4011 18.0021 27.1209 17.7119C27.8407 17.4217 28.6324 17.3604 29.3882 17.5363C30.1441 17.7122 30.8273 18.1168 31.345 18.695C32.1959 18.5233 33.0121 18.2107 33.76 17.77C33.4764 18.6657 32.873 19.4257 32.065 19.905C32.8198 19.801 33.5557 19.5888 34.25 19.275C33.7468 20.0478 33.1102 20.725 32.37 21.275V21.275Z" stroke="#8368FF" stroke-linecap="round" stroke-linejoin="round"/>
</svg>
